Jump_normalized_Motion_pl08
version=1
nRows=18
nColumns=43
inDegrees=yes
endheader
time		pelvis_tilt		pelvis_list		pelvis_rotation		pelvis_tx		pelvis_ty		pelvis_tz		hip_flexion_r		hip_adduction_r		hip_rotation_r		knee_angle_r		ankle_angle_r		subtalar_angle_r		mtp_angle_r		hip_flexion_l		hip_adduction_l		hip_rotation_l		knee_angle_l		ankle_angle_l		subtalar_angle_l		mtp_angle_l		lumbar_extension		lumbar_bending		lumbar_rotation		neck_flexion		neck_lateral_bending		neck_rotation		arm_flex_r		arm_add_r		arm_rot_r		elbow_flex_r		pro_sup_r		wrist_flex_r		wrist_dev_r		hand_finger_flex_r		arm_flex_l		arm_add_l		arm_rot_l		elbow_flex_l		pro_sup_l		wrist_flex_l		wrist_dev_l		hand_finger_flex_l		
0.162500		0.810506		-19.893202		86.057607		0.059993		1.772724		1.697065		70.386684		-1.042312		3.379786		-142.167507		23.773959		-0.190014		12.493926		70.819958		-9.748871		13.771615		-141.596265		9.301024		27.630857		37.342887		-36.470957		-1.307249		6.451212		35.583580		-0.365915		-5.228842		102.198465		-22.918627		14.511344		72.750665		116.956911		-1.793846		-8.403662		8.291611		104.396052		-16.855333		26.356714		48.110479		118.646145		-16.196995		-3.865879		15.976707		
0.164924		0.842296		-19.877664		86.041241		0.059757		1.773881		1.692118		69.660858		-1.028424		3.482879		-141.800633		23.472118		-0.091963		12.593578		70.423654		-9.699282		13.693425		-141.271588		8.258505		27.592390		37.483707		-36.247181		-1.240329		6.500169		35.215001		-0.352405		-5.183726		102.269920		-22.606471		14.468230		72.549378		116.920306		-1.809252		-8.330725		8.464424		104.382059		-16.728094		26.296210		48.005606		118.598619		-16.305116		-3.751043		15.981360		
0.167348		0.865474		-19.862505		86.069406		0.059468		1.774990		1.687091		68.930479		-1.109961		3.576604		-141.429224		23.181779		0.093860		12.700775		70.048497		-9.596239		13.640256		-140.953924		7.204464		27.491508		37.615929		-36.006828		-1.149694		6.490380		34.852137		-0.358131		-5.136717		102.312679		-22.274220		14.452353		72.315621		116.859824		-1.779569		-8.264380		8.589627		104.347443		-16.608927		26.223810		47.853667		118.548739		-16.421185		-3.655479		15.970098		
0.169773		0.910973		-19.829133		86.099610		0.059209		1.776091		1.681988		68.175738		-1.158087		3.666113		-141.057266		22.888837		0.338428		12.823863		69.683237		-9.515098		13.589191		-140.635694		6.080062		27.340866		37.740803		-35.776762		-1.046648		6.493495		34.469786		-0.357066		-5.081650		102.330905		-21.953006		14.445288		72.080246		116.761366		-1.724856		-8.181287		8.659674		104.280390		-16.502550		26.168363		47.717001		118.505451		-16.546244		-3.575617		15.942792		
0.172197		0.955380		-19.793730		86.147911		0.058931		1.777173		1.676847		67.416524		-1.217170		3.754445		-140.676665		22.592433		0.618722		12.969223		69.336857		-9.418091		13.535696		-140.312375		4.900133		27.147750		37.858163		-35.551881		-0.935863		6.481810		34.092834		-0.355775		-5.019854		102.350773		-21.659493		14.471770		71.849511		116.628215		-1.652169		-8.066018		8.666717		104.213693		-16.401188		26.130898		47.579704		118.471034		-16.677775		-3.491837		15.895759		
0.174621		0.997963		-19.747098		86.192374		0.058679		1.778239		1.671639		66.648546		-1.268224		3.849226		-140.295435		22.279589		0.918563		13.132800		68.990320		-9.332781		13.472510		-139.982703		3.668799		26.923291		37.948080		-35.331104		-0.833781		6.474269		33.710076		-0.346610		-4.957584		102.352386		-21.416342		14.548120		71.637803		116.476023		-1.577618		-7.912938		8.607984		104.129190		-16.307268		26.122880		47.451035		118.448276		-16.805467		-3.400987		15.830639		
0.177045		1.030459		-19.686750		86.235423		0.058455		1.779301		1.666374		65.870678		-1.328646		3.953505		-139.906987		21.942462		1.223135		13.303958		68.638151		-9.254849		13.401136		-139.641129		2.387327		26.678218		37.983906		-35.121717		-0.747865		6.461182		33.319613		-0.329720		-4.898670		102.340611		-21.232929		14.680317		71.451219		116.330878		-1.519106		-7.726366		8.495266		104.039612		-16.220186		26.135995		47.325282		118.437829		-16.922676		-3.299017		15.750033		
0.179470		1.050693		-19.625235		86.248589		0.058243		1.780336		1.661122		65.108158		-1.356608		4.107159		-139.532173		21.646166		1.614684		13.664653		68.334555		-9.180499		13.294079		-139.285019		0.883904		26.248913		38.044365		-34.917866		-0.682855		6.478036		33.074475		-0.322308		-4.821861		102.390304		-21.081328		14.899885		71.198049		116.114793		-1.501822		-7.423392		8.214705		103.970623		-16.111760		26.218895		47.145525		118.452194		-17.056063		-3.159089		15.598107		
0.181894		1.056041		-19.529625		86.275619		0.058057		1.781406		1.655765		64.312249		-1.404820		4.249586		-139.145785		21.255410		1.967463		14.039655		67.982359		-9.125015		13.148842		-138.904772		-0.560152		25.846737		38.010272		-34.742211		-0.636963		6.459492		32.707251		-0.282391		-4.774381		102.383042		-21.026293		15.181471		71.038651		115.953560		-1.527989		-7.129040		7.906838		103.879241		-16.029364		26.297424		47.002060		118.470204		-17.152120		-3.018433		15.435063		
0.184318		1.051363		-19.427556		86.327834		0.057870		1.782492		1.650283		63.496770		-1.477669		4.364854		-138.743795		20.836847		2.214606		14.248964		67.584340		-9.041969		13.011997		-138.506356		-1.774226		25.585862		37.869181		-34.566667		-0.595118		6.430516		32.216659		-0.239763		-4.735739		102.274435		-21.073694		15.444147		71.021855		115.904250		-1.558106		-6.946612		7.727810		103.715887		-15.980410		26.378626		46.980236		118.496546		-17.196911		-2.935063		15.331933		
0.186742		1.040513		-19.272707		86.357904		0.057709		1.783589		1.644777		62.645249		-1.522444		4.509571		-138.357207		20.371706		2.477384		14.443749		67.187788		-8.976490		12.862508		-138.082947		-3.317704		25.248920		37.585739		-34.442723		-0.572059		6.406387		31.789982		-0.166055		-4.697498		102.224178		-21.088821		15.749913		70.872338		115.927740		-1.653149		-6.710311		7.553553		103.589121		-15.901985		26.461458		46.858397		118.549907		-17.228676		-2.801541		15.214042		
0.189167		1.006550		-19.132098		86.371175		0.057521		1.784654		1.639268		61.824803		-1.571130		4.731605		-137.940019		19.645033		2.850073		17.385387		66.838656		-8.901491		12.568172		-137.684055		-4.768659		24.294097		35.910676		-34.314388		-0.573636		6.422902		31.516530		-0.126618		-4.657836		102.254129		-21.277002		16.361809		70.730834		115.268364		-1.926743		-6.235441		6.682144		103.462878		-15.792353		26.541373		46.763100		118.730818		-16.800437		-2.558801		14.001673		
0.191591		0.982228		-18.981158		86.412240		0.057364		1.785701		1.633699		60.994893		-1.614183		4.902308		-137.540811		19.027353		3.111190		18.830158		66.487897		-8.822503		12.363264		-137.242045		-6.297222		23.658208		34.874159		-34.187423		-0.563216		6.400053		31.170875		-0.044031		-4.637228		102.209922		-21.377213		16.781594		70.568668		115.129545		-2.109509		-5.918662		6.260225		103.316661		-15.714156		26.644427		46.664949		118.881896		-16.569290		-2.391460		13.374054		
0.194015		0.966235		-18.806862		86.473369		0.057237		1.786748		1.628064		60.137706		-1.651194		5.023142		-137.148924		18.532899		3.308082		18.867385		66.131828		-8.736685		12.210319		-136.764037		-7.946765		23.151496		34.434095		-34.079868		-0.544567		6.356060		30.771392		0.058103		-4.617070		102.104764		-21.401278		17.031281		70.391657		115.406938		-2.239500		-5.747739		6.240074		103.159180		-15.657685		26.785716		46.562489		119.007197		-16.540802		-2.274833		13.291029		
0.196439		0.948788		-18.622208		86.543732		0.057125		1.787787		1.622383		59.273347		-1.691453		5.133963		-136.752053		18.025914		3.523866		18.954343		65.791320		-8.658193		12.010540		-136.268705		-9.668061		22.384364		33.890974		-33.984055		-0.530694		6.297015		30.390205		0.155497		-4.597295		101.978156		-21.431734		17.281345		70.208481		115.663259		-2.398994		-5.588331		6.235984		103.002621		-15.614968		26.955558		46.460965		119.157250		-16.488221		-2.140590		13.171929		
0.198864		0.932090		-18.433745		86.624935		0.057014		1.788803		1.616664		58.413585		-1.737065		5.236902		-136.352195		17.488364		3.739766		19.090912		65.468475		-8.584497		11.784283		-135.752240		-11.414357		21.442590		33.270958		-33.890767		-0.517375		6.220463		30.011873		0.260503		-4.588966		101.823185		-21.454646		17.512128		70.019732		115.895504		-2.545208		-5.444007		6.261322		102.840324		-15.588718		27.143856		46.367837		119.313906		-16.401292		-2.002127		13.020980		
0.201288		0.918108		-18.238782		86.717311		0.056898		1.789793		1.610920		57.559337		-1.780732		5.336724		-135.949342		16.908362		3.942797		19.258122		65.156746		-8.497038		11.569002		-135.216406		-13.164051		20.446133		32.626962		-33.805509		-0.501407		6.144953		29.626928		0.379945		-4.594435		101.652635		-21.465632		17.696845		69.818494		116.099628		-2.643890		-5.312484		6.312888		102.665956		-15.565891		27.349248		46.291700		119.457469		-16.277508		-1.873298		12.856338		
0.203712		0.906954		-18.038389		86.818340		0.056795		1.790758		1.605157		56.711446		-1.822437		5.424990		-135.543980		16.289404		4.131990		19.455200		64.861355		-8.406844		11.367743		-134.654592		-14.938363		19.416053		31.975675		-33.727624		-0.485650		6.066491		29.248191		0.509336		-4.611018		101.463972		-21.465957		17.837397		69.605975		116.294055		-2.686013		-5.190562		6.381498		102.486641		-15.549596		27.574547		46.221060		119.584531		-16.116253		-1.753139		12.680671		
